<svg xmlns="http://www.w3.org/2000/svg" xmlns:xlink="http://www.w3.org/1999/xlink" id="Capa_1" x="0" y="0" version="1.1" viewBox="0 0 51.052 51.052" xml:space="preserve" style="enable-background:new 0 0 51.052 51.052"><path style="fill:#556080" d="M41.026,22.052h-4V15.5c0-6.341-5.159-11.5-11.5-11.5s-11.5,5.159-11.5,11.5v6.552h-4V15.5	c0-8.547,6.953-15.5,15.5-15.5s15.5,6.953,15.5,15.5V22.052z"/><path style="fill:#97a5af" d="M38.026,51.052h-25c-3.866,0-7-3.134-7-7v-22h39v22C45.026,47.918,41.892,51.052,38.026,51.052z"/><path style="fill:#abbcc6" d="M13.026,51.052h12v-29h-19v22C6.026,47.918,9.16,51.052,13.026,51.052z"/><path style="fill:#8697cb" d="M38.026,51.052h-25c-3.866,0-7-3.134-7-7v0h39v0C45.026,47.918,41.892,51.052,38.026,51.052z"/><rect style="fill:#556080" width="5" height="12" x="32.026" y="27.052"/><rect style="fill:#556080" width="5" height="12" x="23.026" y="27.052"/><rect style="fill:#556080" width="5" height="12" x="14.026" y="27.052"/><rect style="fill:#313847" width="3" height="2" x="15.026" y="28.052"/><rect style="fill:#313847" width="3" height="2" x="15.026" y="32.052"/><rect style="fill:#8697cb" width="3" height="2" x="15.026" y="36.052"/><rect style="fill:#313847" width="3" height="2" x="24.026" y="28.052"/><rect style="fill:#8697cb" width="3" height="2" x="24.026" y="32.052"/><rect style="fill:#313847" width="3" height="2" x="24.026" y="36.052"/><rect style="fill:#313847" width="3" height="2" x="33.026" y="28.052"/><rect style="fill:#313847" width="3" height="2" x="33.026" y="32.052"/><rect style="fill:#8697cb" width="3" height="2" x="33.026" y="36.052"/><path style="fill:#99ade0" d="M6.026,44.052c0,3.866,3.134,7,7,7h12v-7H6.026z"/></svg>