<svg xmlns="http://www.w3.org/2000/svg" xmlns:xlink="http://www.w3.org/1999/xlink" width="183.353" height="42" viewBox="0 0 183.353 42"><defs><clipPath id="clip-path"><rect id="Rechteck_1" width="183.353" height="42" data-name="Rechteck 1"/></clipPath></defs><g id="RUAG_Logo_rgb_190827" transform="translate(-0.49 0.26)"><g id="Gruppe_4" data-name="Gruppe 4" transform="translate(0.49 -0.26)"><g id="Gruppe_1" clip-path="url(#clip-path)" data-name="Gruppe 1"><path id="Pfad_1" fill="#96a5af" d="M54.809,21.211c5.574,0,10.109-1.962,10.109-7.658V-.26H58.726V12.85c0,2.243-1.491,3.545-3.918,3.545s-3.918-1.308-3.918-3.545V-.26H44.7V13.553c0,5.69,4.535,7.658,10.109,7.658" data-name="Pfad 1" transform="translate(-17.68 0.26)"/></g><g id="Gruppe_2" clip-path="url(#clip-path)" data-name="Gruppe 2"><path id="Pfad_2" fill="#96a5af" d="M22.022,6.463c0-4.278-3.337-6.723-7.762-6.723H.49v21h5.9V4.342h7.34c1.565,0,3.007.972,3.007,2.42s-1.448,2.42-3.007,2.42H7.665l8.19,11.557h6.54l-5.122-7.426a7.183,7.183,0,0,0,4.749-6.851" data-name="Pfad 2" transform="translate(-0.49 0.26)"/></g><g id="Gruppe_3" clip-path="url(#clip-path)" data-name="Gruppe 3"><path id="Pfad_3" fill="#96a5af" d="M149.937,11.255l-.006,8.6c-1.626.752-4.2,1.222-9.278,1.222-9.058,0-11.423-3.343-11.423-10.854C129.23,2.185,131.6-.26,140.555-.26h9.357l.043,5.238s-4.321.055-9.4.055c-4.675,0-4.9,1.393-4.9,5.183,0,5.116,1.412,5.794,4.993,5.794a13.751,13.751,0,0,0,3.636-.385l-.031-4.278Z" data-name="Pfad 3" transform="translate(-50.547 0.26)"/></g></g><path id="Pfad_4" fill="#96a5af" d="M91.2-.26l-7.64,21h6.766l4.394-13.2,1.155-3.1,1.155,3.1,4.388,13.2h6.772l-7.64-21Z" data-name="Pfad 4" transform="translate(-32.3 0)"/><path id="Pfad_5" fill="red" d="M183.67,29.138v12.6h29.4v-14.7h-14.7v-12.6Zm29.4-29.4-14.7,14.7h14.7Z" data-name="Pfad 5" transform="translate(-71.225 0)"/><path id="Pfad_6" fill="#96a5af" d="M252.38,27.035v14.7l14.7-14.7h-14.7Zm0-27.3v14.7h14.7v12.6l14.7-14.7V-.26Z" data-name="Pfad 6" transform="translate(-97.941 0)"/><path id="Pfad_7" fill="#50555a" d="M252.38,27.035v14.7l14.7-14.7h-14.7Zm29.4-27.3-14.7,14.7v12.6l14.7-14.7Z" data-name="Pfad 7" transform="translate(-97.941 0)"/><path id="Pfad_8" fill="#500" d="M198.369,44.4l-14.7,14.7h29.4V44.4Z" data-name="Pfad 8" transform="translate(-71.225 -17.365)"/></g></svg>